<svg id="Layer_1" data-name="Layer 1" xmlns="http://www.w3.org/2000/svg" viewBox="0 0 841.89 595.28">
    <defs>
        <style>
            .cls-1 {
                fill: #ffeab6;
            }
        </style>
    </defs>
    <rect class="cls-1" width="841.89" height="595.28" />
    <path
        d="M340.34,336.86v7.89H315.27V248.59h24.91v32.76c4.27-2.74,8.05-6.13,12.48-7.83,11.75-4.5,25-.11,33,10.1,10.71,13.79,10.49,37.55-.25,51.36-11.08,14.25-32.9,15.39-43.2,3.43A18.63,18.63,0,0,0,340.34,336.86ZM368.74,310c-.08-9.77-5.49-16.35-13.39-17.1-7.53-.72-14.35,4.85-15.52,13.16-.93,6.52.62,12.46,6.19,16.63,4.61,3.45,9.68,3.63,14.72,1C366.6,320.72,368.54,315.4,368.74,310Z" />
    <path
        d="M470.62,344.87H446.19c-.13-2.07-.26-4-.42-6.52-1,.69-1.67,1.11-2.28,1.61-9,7.38-19.07,8.41-29.7,4.45-8.44-3.14-13-10.46-13-20,0-9.39,4.46-16.34,12.76-19.79,9.3-3.86,18.81-3.47,28.4-1.28,1,.23,2,.48,3,.67.21,0,.47-.13.7-.21.61-5.85-2.22-10-8-11.35-6.86-1.61-13.61-.65-20.25,1.39-1.67.51-3.33,1.06-5.29,1.69-1.58-5.37-3.18-10.56-4.55-15.81a2.92,2.92,0,0,1,1.43-2.45c15.21-5.55,30.71-7.16,46.14-1.4,10.25,3.83,15.12,12.33,15.42,22.9C470.94,314,470.62,329.21,470.62,344.87Zm-36.39-14.23c6.22.13,10.95-3.62,11.92-9.49.84-5.06.28-6-4.86-6.59a33.35,33.35,0,0,0-8.29-.09c-5.12.68-8.31,4.55-7.91,9S428.74,330.52,434.23,330.64Z" />
    <path
        d="M664.32,316.15H617.2c1.88,13,16.11,15.08,30.95,4.65L661.72,332a36.46,36.46,0,0,1-25,14.27c-16.84,2.2-34.31-4.4-41.43-21.37-6.95-16.58-1.75-37.24,12.52-46.72,12-8,25.06-8.7,38-2.43,12.48,6,17.16,17.35,18.47,30.39C664.59,309.23,664.32,312.41,664.32,316.15ZM640.55,303c-.32-7.82-6-13.3-12.91-12.6-6.22.64-11.53,7-10.6,12.6Z" />
    <path
        d="M544.62,293.81l-8.15-.38V273.48h8v-18.1h25.1v17.89h16.67v20.19h-16.5v15.1c0,3.05,0,6.1,0,9.14.12,5.55,2.79,7.92,8.29,7.16,2.49-.34,4.91-1.14,7.95-1.88,0,6.27.07,12.4-.09,18.52,0,.69-1.17,1.63-2,2-9.44,3.73-19,4.46-28.49.37-8.31-3.58-10.48-11-10.76-19-.31-8.88-.09-17.77-.1-26.66Z" />
    <path
        d="M675.55,273.46h24.64v12.33c5.23-8.55,12-13.88,22.58-13.4v25.92c-3,.43-5.94.52-8.71,1.3-8.23,2.31-12.29,8.37-13,16.47-.65,7.18-.48,14.44-.64,21.67,0,2.26,0,4.53,0,7.05H675.55Z" />
    <path
        d="M508.59,285.92c5.21-8.82,12-14,22.64-13.49v25.8c-3.18.5-6.26.67-9.13,1.51-8.55,2.52-13.05,9.62-13.25,20.83-.14,8,0,16,0,24.21h-25V273.53h24.75Z" />
    <path
        d="M237.25,370a73.59,73.59,0,0,1-10.38,4.65c-33.17,11.56-67,.94-87.84-27.31a5.17,5.17,0,0,0-3.92-1.69c-7.71.58-13.52-3.22-15.51-10.48a13.87,13.87,0,0,1,8.33-16.4c6.26-2.66,13.33-.3,17.19,5.74,3.64,5.71,2.35,12.62-3.73,18.79,15.18,21,35.2,31.79,61,31.48a68.46,68.46,0,0,0,32-8.28c.33-.18.7-.49,1-.45" />
    <path
        d="M241.21,239.89c5.77,4.73,12.07,9.06,16.88,14.66,12.9,15,18.82,32.79,18.11,52.66a22.85,22.85,0,0,1-.23,3.42c-.87,4.65-1.63,8.6,3,12.6,4.87,4.18,4.38,11.66.65,16.73a14,14,0,1,1-13.71-22c1.47-.28,3-.38,4.7-.59a70.4,70.4,0,0,0-7.43-47.87A69.48,69.48,0,0,0,239.78,244c-.32-.2-.81-.34-.93-.63" />
    <path
        d="M126.77,289.25A74.24,74.24,0,0,1,145,252.65a73.38,73.38,0,0,1,39.85-23,14.18,14.18,0,0,0,1.77-.61c1.88-8.52,7.45-13.4,14.84-13,6.45.33,12.25,5.58,13,11.79.88,7-3.1,13.61-9.4,15.57-7.67,2.38-13.73-.81-18.36-9.86-24.07,5.52-41.33,19.44-51.4,42.05-2,4.58-2.91,9.67-4.57,14.44" />
</svg>