<?xml version="1.0" encoding="utf-8"?>
<svg width="100" height="100" viewBox="312.485 200.81 130 114.191" xmlns="http://www.w3.org/2000/svg">
    <path fill="#010000" opacity="1.000000" stroke="none" rx="15"
        d="M 394.387 315.001 C 367.03 315.001 339.758 315.001 312.485 315.001 C 312.485 276.937 312.485 238.873 312.485 200.81 C 355.819 200.81 399.152 200.81 442.485 200.81 C 442.485 238.873 442.485 276.937 442.485 315.001 C 426.481 315.001 410.476 315.001 394.387 315.001 M 375.589 232.24 C 373.973 231.958 372.989 232.484 372.327 234.036 C 372.311 234.178 372.295 234.321 372.237 234.613 C 372.234 238.708 372.231 242.803 372.159 246.991 C 371.84 248.915 374.183 250.555 376.162 249.452 C 376.723 249.139 377.278 248.813 377.836 248.492 C 380.793 246.791 383.752 245.092 386.708 243.387 C 387.708 242.81 388.279 241.979 388.192 240.78 C 388.115 239.724 387.644 238.931 386.567 238.418 C 386.275 238.261 385.983 238.104 385.65 237.856 C 385.53 237.808 385.41 237.759 385.208 237.633 C 384.978 237.513 384.747 237.393 384.475 237.181 C 384.355 237.132 384.234 237.083 384.024 236.952 C 381.628 235.584 379.232 234.216 376.774 232.752 C 376.419 232.601 376.064 232.45 375.589 232.24 M 378.326 275.262 C 385.472 275.262 392.618 275.269 399.764 275.252 C 400.656 275.25 401.565 275.206 402.439 275.038 C 407.79 274.004 411.54 269.41 411.594 263.82 C 411.629 260.177 411.602 256.534 411.602 252.891 C 411.602 242.242 411.619 231.593 411.595 220.944 C 411.58 214.268 406.654 209.275 400.068 209.266 C 385.748 209.247 371.428 209.245 357.108 209.287 C 355.841 209.291 354.525 209.514 353.318 209.904 C 348.647 211.412 345.611 215.739 345.606 220.791 C 345.593 233.653 345.601 246.516 345.603 259.379 C 345.603 261.144 345.562 262.912 345.642 264.675 C 345.864 269.564 349.634 274.199 354.454 274.912 C 357.88 275.419 361.404 275.255 364.884 275.391 C 364.895 275.316 364.907 275.242 364.917 275.168 C 364.805 275.106 364.699 275.026 364.58 274.983 C 361.669 273.952 359.971 271.816 359.108 268.94 C 358.376 266.5 358.227 263.983 358.225 261.455 C 358.216 251.03 358.215 240.606 358.218 230.181 C 358.219 227.47 360.16 225.248 362.863 225.009 C 364.532 224.861 366.221 224.909 367.901 224.908 C 376.308 224.899 384.715 224.898 393.122 224.907 C 396.701 224.911 398.894 227.112 398.902 230.675 C 398.905 232.02 398.902 233.365 398.902 234.711 C 398.902 241.212 398.912 247.713 398.897 254.215 C 398.891 257.051 396.889 259.26 394.087 259.539 C 393.281 259.62 392.465 259.61 391.654 259.612 C 385.657 259.627 379.658 259.548 373.664 259.673 C 369.5 259.76 366.223 263.443 366.355 267.578 C 366.492 271.887 369.896 275.255 374.123 275.261 C 375.468 275.264 376.813 275.262 378.326 275.262 M 323.137 292.213 C 323.137 294.696 323.137 297.18 323.137 299.757 C 326.068 299.757 328.921 299.905 331.75 299.706 C 333.7 299.569 334.744 298.123 334.84 296.118 C 334.92 294.447 334.976 292.771 333.146 291.763 C 334.526 290.705 334.552 289.333 334.51 287.934 C 334.438 285.575 333.271 284.095 330.934 283.964 C 328.402 283.822 325.85 284.005 323.307 284.052 C 323.267 284.053 323.228 284.121 323.137 284.205 C 323.137 286.788 323.137 289.416 323.137 292.213 M 380.329 297.18 C 380.415 296.566 380.105 296.421 379.546 296.431 C 378.061 296.459 376.575 296.461 375.09 296.42 C 374.846 296.413 374.418 296.153 374.403 295.981 C 374.33 295.157 374.37 294.322 374.37 293.378 C 376.209 293.378 377.929 293.378 379.703 293.378 C 379.703 292.451 379.681 291.639 379.71 290.831 C 379.728 290.326 379.554 290.125 379.035 290.144 C 378.167 290.175 377.297 290.152 376.428 290.152 C 374.275 290.152 374.29 290.152 374.355 287.996 C 374.37 287.491 374.522 287.297 375.035 287.313 C 375.96 287.342 376.885 287.321 377.81 287.321 C 378.582 287.321 379.353 287.321 380.108 287.321 C 380.108 286.129 380.108 285.084 380.108 284.053 C 376.904 284.053 373.777 284.053 370.635 284.053 C 370.635 289.303 370.635 294.497 370.635 299.714 C 373.879 299.714 377.059 299.714 380.329 299.714 C 380.329 298.887 380.329 298.109 380.329 297.18 M 395.217 292.939 C 394.776 291.398 393.7 290.554 392.174 290.278 C 391.491 290.155 390.782 290.146 390.084 290.134 C 388.079 290.097 388.347 290.383 388.278 288.335 C 388.25 287.498 388.556 287.281 389.342 287.306 C 390.937 287.356 392.535 287.336 394.132 287.301 C 394.362 287.296 394.773 287.057 394.783 286.905 C 394.844 285.968 394.814 285.025 394.814 283.947 C 392.412 283.947 390.112 283.807 387.838 283.988 C 385.69 284.159 384.582 285.555 384.477 287.706 C 384.452 288.209 384.455 288.714 384.461 289.218 C 384.495 291.945 385.892 293.399 388.629 293.556 C 388.937 293.573 389.245 293.57 389.553 293.571 C 391.607 293.576 391.578 293.576 391.579 295.63 C 391.579 296.327 391.292 296.49 390.676 296.479 C 389.248 296.456 387.819 296.472 386.391 296.472 C 385.9 296.472 385.409 296.472 384.896 296.472 C 384.896 297.633 384.896 298.655 384.896 299.793 C 387.345 299.793 389.753 299.922 392.141 299.751 C 393.997 299.618 395.136 298.378 395.307 296.589 C 395.418 295.431 395.275 294.249 395.217 292.939 M 425.468 297.593 C 425.468 298.283 425.468 298.972 425.468 299.684 C 428.766 299.684 431.941 299.684 435.135 299.684 C 435.135 298.598 435.135 297.575 435.135 296.473 C 434.801 296.473 434.526 296.473 434.251 296.473 C 432.85 296.472 431.448 296.494 430.048 296.453 C 429.789 296.446 429.331 296.208 429.317 296.045 C 429.243 295.197 429.282 294.338 429.282 293.383 C 431.119 293.383 432.815 293.383 434.582 293.383 C 434.582 292.47 434.555 291.66 434.592 290.853 C 434.618 290.279 434.367 290.128 433.843 290.145 C 432.975 290.174 432.105 290.153 431.236 290.153 C 429.252 290.153 429.284 290.152 429.26 288.16 C 429.251 287.431 429.52 287.257 430.19 287.276 C 431.59 287.317 432.993 287.307 434.393 287.27 C 434.619 287.264 435.02 287.024 435.03 286.872 C 435.091 285.959 435.06 285.039 435.06 284.086 C 431.824 284.086 428.68 284.086 425.467 284.086 C 425.467 288.578 425.467 293.001 425.468 297.593 M 410.509 287.046 C 412.468 287.046 414.426 287.046 416.608 287.046 C 416.241 287.562 416.054 287.835 415.856 288.101 C 413.783 290.887 411.705 293.671 409.64 296.463 C 409.465 296.7 409.281 296.991 409.259 297.27 C 409.151 298.656 410.093 299.746 411.503 299.77 C 414.332 299.816 417.162 299.786 419.991 299.8 C 420.416 299.802 420.605 299.66 420.588 299.216 C 420.566 298.629 420.553 298.037 420.599 297.452 C 420.647 296.835 420.375 296.695 419.812 296.705 C 418.16 296.733 416.507 296.719 414.854 296.711 C 414.569 296.709 414.284 296.657 413.85 296.612 C 414.092 296.258 414.221 296.05 414.368 295.856 C 416.444 293.106 418.538 290.37 420.582 287.597 C 420.848 287.237 421.017 286.672 420.964 286.235 C 420.766 284.644 419.906 283.958 418.19 283.947 C 415.725 283.933 413.259 283.97 410.794 283.956 C 410.235 283.953 409.962 284.089 410.013 284.705 C 410.06 285.261 409.992 285.827 410.038 286.384 C 410.057 286.61 410.244 286.821 410.509 287.046 M 352.109 285.072 C 352.205 284.763 352.3 284.454 352.436 284.017 C 351.323 284.017 350.349 284.043 349.376 284.007 C 348.868 283.988 348.634 284.175 348.475 284.651 C 347.854 286.509 347.216 288.362 346.529 290.196 C 346.395 290.554 346.016 290.821 345.75 291.13 C 345.48 290.824 345.091 290.561 344.96 290.204 C 344.288 288.364 343.694 286.496 343.04 284.651 C 342.954 284.407 342.688 284.061 342.492 284.051 C 341.324 283.994 340.153 284.023 338.982 284.023 C 338.982 284.194 338.959 284.284 338.985 284.357 C 339.94 287.046 340.872 289.745 341.882 292.413 C 342.089 292.959 342.5 293.551 342.985 293.836 C 343.612 294.205 343.722 294.623 343.708 295.258 C 343.673 296.729 343.697 298.202 343.697 299.716 C 345.007 299.716 346.198 299.716 347.484 299.716 C 347.484 299.395 347.484 299.122 347.484 298.849 C 347.484 297.562 347.47 296.274 347.496 294.986 C 347.501 294.74 347.603 294.342 347.765 294.277 C 348.897 293.824 349.257 292.816 349.628 291.817 C 350.448 289.614 351.249 287.404 352.109 285.072 M 358.788 290.7 C 358.788 293.688 358.788 296.677 358.788 299.715 C 360.085 299.715 361.274 299.715 362.562 299.715 C 362.562 299.37 362.562 299.07 362.562 298.77 C 362.562 295.238 362.575 291.708 362.55 288.177 C 362.545 287.541 362.69 287.252 363.386 287.309 C 364.11 287.368 364.844 287.352 365.569 287.299 C 365.761 287.285 366.082 287.022 366.092 286.859 C 366.142 285.943 366.116 285.022 366.116 284.05 C 362.463 284.05 358.892 284.05 355.227 284.05 C 355.227 285.017 355.196 285.937 355.256 286.851 C 355.267 287.02 355.636 287.282 355.855 287.299 C 356.58 287.357 357.313 287.354 358.039 287.312 C 358.642 287.278 358.823 287.519 358.797 288.094 C 358.759 288.905 358.788 289.719 358.788 290.7 M 401.553 299.745 C 402.47 299.745 403.388 299.745 404.349 299.745 C 404.349 294.465 404.349 289.281 404.349 284.068 C 403.098 284.068 401.908 284.068 400.681 284.068 C 400.656 284.244 400.62 284.377 400.62 284.51 C 400.617 289.377 400.627 294.244 400.604 299.111 C 400.601 299.751 400.928 299.782 401.553 299.745 Z"
        style="transform-origin: 358.033px 257.905px;" />
    <path fill="#EB625D" opacity="1.000000" stroke="none"
        d="M 378.242 275.262 C 376.813 275.262 375.468 275.264 374.123 275.261 C 369.896 275.255 366.492 271.887 366.355 267.578 C 366.223 263.443 369.5 259.76 373.664 259.673 C 379.658 259.548 385.657 259.627 391.654 259.612 C 392.465 259.61 393.281 259.62 394.087 259.539 C 396.889 259.26 398.891 257.051 398.897 254.215 C 398.912 247.713 398.902 241.212 398.902 234.711 C 398.902 233.365 398.905 232.02 398.902 230.675 C 398.894 227.112 396.701 224.911 393.122 224.907 C 384.715 224.898 376.308 224.899 367.901 224.908 C 366.221 224.909 364.532 224.861 362.863 225.009 C 360.16 225.248 358.219 227.47 358.218 230.181 C 358.215 240.606 358.216 251.03 358.225 261.455 C 358.227 263.983 358.376 266.5 359.108 268.94 C 359.971 271.816 361.669 273.952 364.58 274.983 C 364.699 275.026 364.805 275.106 364.917 275.168 C 364.907 275.242 364.895 275.316 364.884 275.391 C 361.404 275.255 357.88 275.419 354.454 274.912 C 349.634 274.199 345.864 269.564 345.642 264.675 C 345.562 262.912 345.603 261.144 345.603 259.379 C 345.601 246.516 345.593 233.653 345.606 220.791 C 345.611 215.739 348.647 211.412 353.318 209.904 C 354.525 209.514 355.841 209.291 357.108 209.287 C 371.428 209.245 385.748 209.247 400.068 209.266 C 406.654 209.275 411.58 214.268 411.595 220.944 C 411.619 231.593 411.602 242.242 411.602 252.891 C 411.602 256.534 411.629 260.177 411.594 263.82 C 411.54 269.41 407.79 274.004 402.439 275.038 C 401.565 275.206 400.656 275.25 399.764 275.252 C 392.618 275.269 385.472 275.262 378.242 275.262 Z"
        style="transform-origin: 358.033px 257.905px;" />
    <path fill="#FEFEFE" opacity="1.000000" stroke="none"
        d="M 384.517 237.273 C 384.747 237.393 384.978 237.513 385.261 237.725 C 385.439 237.86 385.565 237.904 385.691 237.948 C 385.983 238.104 386.275 238.261 386.61 238.517 C 387.91 240.387 387.472 241.788 386.046 242.629 C 382.71 244.601 379.333 246.504 375.941 248.379 C 374.244 249.316 372.844 248.711 372.228 246.898 C 372.231 242.803 372.234 238.708 372.305 234.527 C 372.38 234.277 372.387 234.112 372.395 233.947 C 372.989 232.484 373.973 231.958 375.66 232.327 C 376.099 232.559 376.468 232.704 376.836 232.848 C 379.232 234.216 381.628 235.584 384.08 237.046 C 384.263 237.185 384.39 237.229 384.517 237.273 Z"
        style="transform-origin: 358.033px 257.905px;" />
    <path fill="#E5605B" opacity="1.000000" stroke="none"
        d="M 323.137 292.129 C 323.137 289.416 323.137 286.788 323.137 284.205 C 323.228 284.121 323.267 284.053 323.307 284.052 C 325.85 284.005 328.402 283.822 330.934 283.964 C 333.271 284.095 334.438 285.575 334.51 287.934 C 334.552 289.333 334.526 290.705 333.146 291.763 C 334.976 292.771 334.92 294.447 334.84 296.118 C 334.744 298.123 333.7 299.569 331.75 299.706 C 328.921 299.905 326.068 299.757 323.137 299.757 C 323.137 297.18 323.137 294.696 323.137 292.129 M 327.737 296.677 C 328.604 296.677 329.471 296.666 330.337 296.68 C 330.831 296.688 331.051 296.485 331.036 295.98 C 331.014 295.31 331.018 294.638 331.034 293.968 C 331.044 293.511 330.856 293.296 330.392 293.3 C 329.442 293.308 328.491 293.313 327.54 293.295 C 327.116 293.287 326.929 293.435 326.943 293.877 C 326.964 294.604 326.968 295.332 326.94 296.057 C 326.922 296.536 327.112 296.731 327.737 296.677 M 326.946 288.356 C 326.946 288.957 326.946 289.559 326.946 290.238 C 328.096 290.238 329.12 290.258 330.143 290.218 C 330.322 290.212 330.637 289.954 330.639 289.81 C 330.65 288.957 330.751 288.041 330.46 287.284 C 330.358 287.017 329.241 287.136 328.587 287.084 C 328.421 287.071 328.253 287.082 328.086 287.082 C 326.949 287.083 326.949 287.083 326.946 288.356 Z"
        style="transform-origin: 358.033px 257.905px;" />
    <path fill="#E5605B" opacity="1.000000" stroke="none"
        d="M 380.329 297.256 C 380.329 298.109 380.329 298.887 380.329 299.714 C 377.059 299.714 373.879 299.714 370.635 299.714 C 370.635 294.497 370.635 289.303 370.635 284.053 C 373.777 284.053 376.904 284.053 380.108 284.053 C 380.108 285.084 380.108 286.129 380.108 287.321 C 379.353 287.321 378.582 287.321 377.81 287.321 C 376.885 287.321 375.96 287.342 375.035 287.313 C 374.522 287.297 374.37 287.491 374.355 287.996 C 374.29 290.152 374.275 290.152 376.428 290.152 C 377.297 290.152 378.167 290.175 379.035 290.144 C 379.554 290.125 379.728 290.326 379.71 290.831 C 379.681 291.639 379.703 292.451 379.703 293.378 C 377.929 293.378 376.209 293.378 374.37 293.378 C 374.37 294.322 374.33 295.157 374.403 295.981 C 374.418 296.153 374.846 296.413 375.09 296.42 C 376.575 296.461 378.061 296.459 379.546 296.431 C 380.105 296.421 380.415 296.566 380.329 297.256 Z"
        style="transform-origin: 358.033px 257.905px;" />
    <path fill="#E6605C" opacity="1.000000" stroke="none"
        d="M 395.231 293.008 C 395.275 294.249 395.418 295.431 395.307 296.589 C 395.136 298.378 393.997 299.618 392.141 299.751 C 389.753 299.922 387.345 299.793 384.896 299.793 C 384.896 298.655 384.896 297.633 384.896 296.472 C 385.409 296.472 385.9 296.472 386.391 296.472 C 387.819 296.472 389.248 296.456 390.676 296.479 C 391.292 296.49 391.579 296.327 391.579 295.63 C 391.578 293.576 391.607 293.576 389.553 293.571 C 389.245 293.57 388.937 293.573 388.629 293.556 C 385.892 293.399 384.495 291.945 384.461 289.218 C 384.455 288.714 384.452 288.209 384.477 287.706 C 384.582 285.555 385.69 284.159 387.838 283.988 C 390.112 283.807 392.412 283.947 394.814 283.947 C 394.814 285.025 394.844 285.968 394.783 286.905 C 394.773 287.057 394.362 287.296 394.132 287.301 C 392.535 287.336 390.937 287.356 389.342 287.306 C 388.556 287.281 388.25 287.498 388.278 288.335 C 388.347 290.383 388.079 290.097 390.084 290.134 C 390.782 290.146 391.491 290.155 392.174 290.278 C 393.7 290.554 394.776 291.398 395.231 293.008 Z"
        style="transform-origin: 358.033px 257.905px;" />
    <path fill="#E7615C" opacity="1.000000" stroke="none"
        d="M 425.468 297.509 C 425.467 293.001 425.467 288.578 425.467 284.086 C 428.68 284.086 431.824 284.086 435.06 284.086 C 435.06 285.039 435.091 285.959 435.03 286.872 C 435.02 287.024 434.619 287.264 434.393 287.27 C 432.993 287.307 431.59 287.317 430.19 287.276 C 429.52 287.257 429.251 287.431 429.26 288.16 C 429.284 290.152 429.252 290.153 431.236 290.153 C 432.105 290.153 432.975 290.174 433.843 290.145 C 434.367 290.128 434.618 290.279 434.592 290.853 C 434.555 291.66 434.582 292.47 434.582 293.383 C 432.815 293.383 431.119 293.383 429.282 293.383 C 429.282 294.338 429.243 295.197 429.317 296.045 C 429.331 296.208 429.789 296.446 430.048 296.453 C 431.448 296.494 432.85 296.472 434.251 296.473 C 434.526 296.473 434.801 296.473 435.135 296.473 C 435.135 297.575 435.135 298.598 435.135 299.684 C 431.941 299.684 428.766 299.684 425.468 299.684 C 425.468 298.972 425.468 298.283 425.468 297.509 Z"
        style="transform-origin: 358.033px 257.905px;" />
    <path fill="#E5605B" opacity="1.000000" stroke="none"
        d="M 410.432 287.042 C 410.244 286.821 410.057 286.61 410.038 286.384 C 409.992 285.827 410.06 285.261 410.013 284.705 C 409.962 284.089 410.235 283.953 410.794 283.956 C 413.259 283.97 415.725 283.933 418.19 283.947 C 419.906 283.958 420.766 284.644 420.964 286.235 C 421.017 286.672 420.848 287.237 420.582 287.597 C 418.538 290.37 416.444 293.106 414.368 295.856 C 414.221 296.05 414.092 296.258 413.85 296.612 C 414.284 296.657 414.569 296.709 414.854 296.711 C 416.507 296.719 418.16 296.733 419.812 296.705 C 420.375 296.695 420.647 296.835 420.599 297.452 C 420.553 298.037 420.566 298.629 420.588 299.216 C 420.605 299.66 420.416 299.802 419.991 299.8 C 417.162 299.786 414.332 299.816 411.503 299.77 C 410.093 299.746 409.151 298.656 409.259 297.27 C 409.281 296.991 409.465 296.7 409.64 296.463 C 411.705 293.671 413.783 290.887 415.856 288.101 C 416.054 287.835 416.241 287.562 416.608 287.046 C 414.426 287.046 412.468 287.046 410.432 287.042 Z"
        style="transform-origin: 358.033px 257.905px;" />
    <path fill="#E6615C" opacity="1.000000" stroke="none"
        d="M 352.083 285.134 C 351.249 287.404 350.448 289.614 349.628 291.817 C 349.257 292.816 348.897 293.824 347.765 294.277 C 347.603 294.342 347.501 294.74 347.496 294.986 C 347.47 296.274 347.484 297.562 347.484 298.849 C 347.484 299.122 347.484 299.395 347.484 299.716 C 346.198 299.716 345.007 299.716 343.697 299.716 C 343.697 298.202 343.673 296.729 343.708 295.258 C 343.722 294.623 343.612 294.205 342.985 293.836 C 342.5 293.551 342.089 292.959 341.882 292.413 C 340.872 289.745 339.94 287.046 338.985 284.357 C 338.959 284.284 338.982 284.194 338.982 284.023 C 340.153 284.023 341.324 283.994 342.492 284.051 C 342.688 284.061 342.954 284.407 343.04 284.651 C 343.694 286.496 344.288 288.364 344.96 290.204 C 345.091 290.561 345.48 290.824 345.75 291.13 C 346.016 290.821 346.395 290.554 346.529 290.196 C 347.216 288.362 347.854 286.509 348.475 284.651 C 348.634 284.175 348.868 283.988 349.376 284.007 C 350.349 284.043 351.323 284.017 352.436 284.017 C 352.3 284.454 352.205 284.763 352.083 285.134 Z"
        style="transform-origin: 358.033px 257.905px;" />
    <path fill="#E4605B" opacity="1.000000" stroke="none"
        d="M 358.788 290.615 C 358.788 289.719 358.759 288.905 358.797 288.094 C 358.823 287.519 358.642 287.278 358.039 287.312 C 357.313 287.354 356.58 287.357 355.855 287.299 C 355.636 287.282 355.267 287.02 355.256 286.851 C 355.196 285.937 355.227 285.017 355.227 284.05 C 358.892 284.05 362.463 284.05 366.116 284.05 C 366.116 285.022 366.142 285.943 366.092 286.859 C 366.082 287.022 365.761 287.285 365.569 287.299 C 364.844 287.352 364.11 287.368 363.386 287.309 C 362.69 287.252 362.545 287.541 362.55 288.177 C 362.575 291.708 362.562 295.238 362.562 298.77 C 362.562 299.07 362.562 299.37 362.562 299.715 C 361.274 299.715 360.085 299.715 358.788 299.715 C 358.788 296.677 358.788 293.688 358.788 290.615 Z"
        style="transform-origin: 358.033px 257.905px;" />
    <path fill="#E8615C" opacity="1.000000" stroke="none"
        d="M 401.471 299.745 C 400.928 299.782 400.601 299.751 400.604 299.111 C 400.627 294.244 400.617 289.377 400.62 284.51 C 400.62 284.377 400.656 284.244 400.681 284.068 C 401.908 284.068 403.098 284.068 404.349 284.068 C 404.349 289.281 404.349 294.465 404.349 299.745 C 403.388 299.745 402.47 299.745 401.471 299.745 Z"
        style="transform-origin: 358.033px 257.905px;" />
    <path fill="#CFCFCE" opacity="1.000000" stroke="none"
        d="M 372.194 246.944 C 372.844 248.711 374.244 249.316 375.941 248.379 C 379.333 246.504 382.71 244.601 386.046 242.629 C 387.472 241.788 387.91 240.387 386.649 238.557 C 387.644 238.931 388.115 239.724 388.192 240.78 C 388.279 241.979 387.708 242.81 386.708 243.387 C 383.752 245.092 380.793 246.791 377.836 248.492 C 377.278 248.813 376.723 249.139 376.162 249.452 C 374.183 250.555 371.84 248.915 372.194 246.944 Z"
        style="transform-origin: 358.033px 257.905px;" />
    <path fill="#CFCFCE" opacity="1.000000" stroke="none"
        d="M 376.805 232.8 C 376.468 232.704 376.099 232.559 375.72 232.356 C 376.064 232.45 376.419 232.601 376.805 232.8 Z"
        style="transform-origin: 358.033px 257.905px;" />
    <path fill="#CFCFCE" opacity="1.000000" stroke="none"
        d="M 372.361 233.992 C 372.387 234.112 372.38 234.277 372.326 234.452 C 372.295 234.321 372.311 234.178 372.361 233.992 Z"
        style="transform-origin: 358.033px 257.905px;" />
    <path fill="#CFCFCE" opacity="1.000000" stroke="none"
        d="M 384.496 237.227 C 384.39 237.229 384.263 237.185 384.124 237.087 C 384.234 237.083 384.355 237.132 384.496 237.227 Z"
        style="transform-origin: 358.033px 257.905px;" />
    <path fill="#CFCFCE" opacity="1.000000" stroke="none"
        d="M 385.67 237.902 C 385.565 237.904 385.439 237.86 385.301 237.764 C 385.41 237.759 385.53 237.808 385.67 237.902 Z"
        style="transform-origin: 358.033px 257.905px;" />
    <!-- <path fill="#090404" opacity="1.000000" stroke="none"
        d="M 327.657 296.677 C 327.112 296.731 326.922 296.536 326.94 296.057 C 326.968 295.332 326.964 294.604 326.943 293.877 C 326.929 293.435 327.116 293.287 327.54 293.295 C 328.491 293.313 329.442 293.308 330.392 293.3 C 330.856 293.296 331.044 293.511 331.034 293.968 C 331.018 294.638 331.014 295.31 331.036 295.98 C 331.051 296.485 330.831 296.688 330.337 296.68 C 329.471 296.666 328.604 296.677 327.657 296.677 Z"
        style="transform-origin: 358.033px 257.905px;" />
    <path fill="#0C0505" opacity="1.000000" stroke="none"
        d="M 326.946 288.275 C 326.949 287.083 326.949 287.083 328.086 287.082 C 328.253 287.082 328.421 287.071 328.587 287.084 C 329.241 287.136 330.358 287.017 330.46 287.284 C 330.751 288.041 330.65 288.957 330.639 289.81 C 330.637 289.954 330.322 290.212 330.143 290.218 C 329.12 290.258 328.096 290.238 326.946 290.238 C 326.946 289.559 326.946 288.957 326.946 288.275 Z"
        style="transform-origin: 358.033px 257.905px;" /> -->
</svg>