<svg id="Layer_1" data-name="Layer 1" xmlns="http://www.w3.org/2000/svg" xmlns:xlink="http://www.w3.org/1999/xlink" viewBox="0 0 123.77 207.95"><defs><style>.cls-1,.cls-9{fill:none;}.cls-2{clip-path:url(#clip-path);}.cls-3{clip-path:url(#clip-path-2);}.cls-4{fill:#4c5544;}.cls-5{clip-path:url(#clip-path-3);}.cls-6{clip-path:url(#clip-path-4);}.cls-7{clip-path:url(#clip-path-5);}.cls-8{clip-path:url(#clip-path-6);}.cls-9{stroke:#4c5544;stroke-miterlimit:10;stroke-width:24px;}</style><clipPath id="clip-path" transform="translate(-196.92 -114.84)"><rect class="cls-1" x="292.53" y="114.84" width="28.16" height="28.16"/></clipPath><clipPath id="clip-path-2" transform="translate(-196.92 -114.84)"><circle class="cls-1" cx="306.61" cy="128.92" r="14.08"/></clipPath><clipPath id="clip-path-3" transform="translate(-196.92 -114.84)"><rect class="cls-1" x="205.03" y="137.78" width="101.58" height="101.58"/></clipPath><clipPath id="clip-path-4" transform="translate(-196.92 -114.84)"><circle class="cls-1" cx="255.82" cy="188.57" r="50.79"/></clipPath><clipPath id="clip-path-5" transform="translate(-196.92 -114.84)"><rect class="cls-1" x="221.63" y="258.67" width="96.33" height="64.12"/></clipPath><clipPath id="clip-path-6" transform="translate(-196.92 -114.84)"><rect class="cls-1" x="205.03" y="258.7" width="38.54" height="19.27"/></clipPath></defs><g class="cls-2"><g class="cls-3"><path class="cls-4" d="M292.53,114.84h28.16V143H292.53Z" transform="translate(-196.92 -114.84)"/></g></g><g class="cls-5"><g class="cls-6"><path class="cls-1" d="M205,137.78H306.61V239.36H205Z" transform="translate(-196.92 -114.84)"/></g></g><g class="cls-7"><path class="cls-4" d="M221.66,260.84v15a2.13,2.13,0,0,0,2.13,2.14h63.64c6.93,0,13,5.31,13.25,12.24a12.83,12.83,0,0,1-12.8,13.39,2.14,2.14,0,0,0-2.14,2.14v14.95a2.16,2.16,0,0,0,2.18,2.14c16.47,0,29.87-14.39,29.87-32.05s-13.42-32-29.91-32H223.79A2.13,2.13,0,0,0,221.66,260.84Z" transform="translate(-196.92 -114.84)"/></g><g class="cls-8"><path class="cls-4" d="M243.6,258.7a19.28,19.28,0,1,1-38.56,0Z" transform="translate(-196.92 -114.84)"/></g><path class="cls-4" d="M200.65,315a3.47,3.47,0,0,1-1.52-.31l-.55.67a.52.52,0,0,0-.1.5.48.48,0,0,0,.48.23h2.12a4.4,4.4,0,0,1,2.34.56,1.92,1.92,0,0,1,.89,1.77,2.45,2.45,0,0,1-.37,1.33,2.6,2.6,0,0,1-1.19,1,4.72,4.72,0,0,1-2.08.4,5.11,5.11,0,0,1-2.73-.65,2.08,2.08,0,0,1-1-1.91,1.63,1.63,0,0,1,.23-.88,3.1,3.1,0,0,1,.6-.71,1.26,1.26,0,0,1-.58-.87,1.35,1.35,0,0,1,.35-1.15l.73-.91a2.77,2.77,0,0,1-.77-2,2.91,2.91,0,0,1,.37-1.44,2.64,2.64,0,0,1,1.09-1.08,3.28,3.28,0,0,1,1.71-.42,3.64,3.64,0,0,1,1.2.19h3v1l-1.53.06v.1a2.89,2.89,0,0,1,.44,1.57,3,3,0,0,1-.37,1.46,3,3,0,0,1-1.09,1.08A3.34,3.34,0,0,1,200.65,315Zm0-1.16a1.84,1.84,0,0,0,1.29-.46,1.72,1.72,0,0,0,.52-1.31,1.64,1.64,0,0,0-.52-1.29,1.84,1.84,0,0,0-1.29-.46,1.93,1.93,0,0,0-1.34.46,1.6,1.6,0,0,0-.52,1.29,1.69,1.69,0,0,0,.52,1.31A1.93,1.93,0,0,0,200.65,313.88Zm-2.38,4.69a1.15,1.15,0,0,0,.67,1.08,3.74,3.74,0,0,0,1.73.35,3.09,3.09,0,0,0,1.66-.41,1.24,1.24,0,0,0,.65-1.09,1.13,1.13,0,0,0-.46-.89,2.78,2.78,0,0,0-1.69-.38H199A1.6,1.6,0,0,0,198.27,318.57Z" transform="translate(-196.92 -114.84)"/><path class="cls-4" d="M207,317.42v-1.17h2.06v-5.31q0-.42-.39-.42h-1.46v-1.16h2a1.22,1.22,0,0,1,.85.29,1.12,1.12,0,0,1,.34.87v.34h.06a2.1,2.1,0,0,1,.73-1.25,2.43,2.43,0,0,1,1.54-.44h1.46v1.44h-1.67a1.84,1.84,0,0,0-1.52.66,2.58,2.58,0,0,0-.54,1.69v3.29H213v1.17Z" transform="translate(-196.92 -114.84)"/><path class="cls-4" d="M220.19,307.92a1.09,1.09,0,0,1-.81-.31,1.12,1.12,0,0,1-.32-.79,1.06,1.06,0,0,1,.32-.78,1.11,1.11,0,0,1,.81-.33,1.14,1.14,0,0,1,.81.33,1,1,0,0,1,.33.78,1.09,1.09,0,0,1-.33.79A1.12,1.12,0,0,1,220.19,307.92Zm-3.15,9.5v-1.17h2.56v-5.31q0-.42-.39-.42h-1.9v-1.16h2.21a1.29,1.29,0,0,1,1.46,1.46v5.43h2.56v1.17Z" transform="translate(-196.92 -114.84)"/><path class="cls-4" d="M230.13,317.61a4.07,4.07,0,0,1-2.5-.71,2.77,2.77,0,0,1-1.07-2H228a1.67,1.67,0,0,0,.65,1.1,2.47,2.47,0,0,0,1.52.42,1.93,1.93,0,0,0,1.35-.4,1.17,1.17,0,0,0,.46-.89.94.94,0,0,0-.54-.94,5.24,5.24,0,0,0-1.61-.37,5,5,0,0,1-2.14-.69,1.88,1.88,0,0,1-.84-1.67,2,2,0,0,1,.84-1.64,3.6,3.6,0,0,1,2.27-.65,3.5,3.5,0,0,1,2.21.65,2.47,2.47,0,0,1,.93,1.81h-1.35a1.16,1.16,0,0,0-.56-.92,2.21,2.21,0,0,0-1.27-.35,2.05,2.05,0,0,0-1.23.31.9.9,0,0,0-.44.77,1,1,0,0,0,.48.81,3.49,3.49,0,0,0,1.58.4,8.3,8.3,0,0,1,1.52.33,2.5,2.5,0,0,1,1.13.73,2,2,0,0,1,.41,1.36,2.17,2.17,0,0,1-.39,1.31,2.89,2.89,0,0,1-1.15.89A4.06,4.06,0,0,1,230.13,317.61Z" transform="translate(-196.92 -114.84)"/><path class="cls-4" d="M236.27,317.42V305.71h1.36v4.88a2.39,2.39,0,0,1,1.08-1,3.4,3.4,0,0,1,1.64-.4,2.77,2.77,0,0,1,2.23.9,3.63,3.63,0,0,1,.8,2.5v4.85H242v-4.69a2.47,2.47,0,0,0-.54-1.69,1.83,1.83,0,0,0-1.46-.6,2.52,2.52,0,0,0-1.19.29,2.23,2.23,0,0,0-.87.88,2.8,2.8,0,0,0-.31,1.39v4.42Z" transform="translate(-196.92 -114.84)"/><path class="cls-4" d="M249.54,317.46a1.28,1.28,0,0,1-.87-.33,1.16,1.16,0,0,1-.36-.86,1.08,1.08,0,0,1,.36-.83,1.25,1.25,0,0,1,.87-.35,1.21,1.21,0,0,1,.86.35,1.11,1.11,0,0,1,.35.83,1.19,1.19,0,0,1-.35.86A1.23,1.23,0,0,1,249.54,317.46Z" transform="translate(-196.92 -114.84)"/><path class="cls-4" d="M255.6,317.42l2.75-4-2.81-4H257l2.25,3.25,2.25-3.25H263l-2.81,4,2.75,4h-1.5l-2.19-3.27-2.19,3.27Z" transform="translate(-196.92 -114.84)"/><path class="cls-4" d="M266.58,321l2-4.35h-.46l-3.18-7.29h1.48l2.64,6.25,2.79-6.25h1.44L268,321Z" transform="translate(-196.92 -114.84)"/><path class="cls-4" d="M275.58,317.42v-1.25l4.73-5.54h-4.66v-1.27h6.29v1.25l-4.77,5.54H282v1.27Z" transform="translate(-196.92 -114.84)"/><circle class="cls-9" cx="58.62" cy="73.74" r="38.96"/></svg>