<svg xmlns="http://www.w3.org/2000/svg" xmlns:xlink="http://www.w3.org/1999/xlink" width="500" zoomAndPan="magnify" viewBox="0 0 375 374.999991" height="500" preserveAspectRatio="xMidYMid meet" version="1.0"><defs><g/><clipPath id="c14c178cdd"><path d="M 141.605469 89.074219 L 242.105469 89.074219 L 242.105469 197.824219 L 141.605469 197.824219 Z M 141.605469 89.074219 " clip-rule="nonzero"/></clipPath><clipPath id="d1cc9ed310"><path d="M 137.121094 89.074219 L 237.621094 89.074219 L 237.621094 197.824219 L 137.121094 197.824219 Z M 137.121094 89.074219 " clip-rule="nonzero"/></clipPath></defs><rect x="-37.5" width="450" fill="#ffffff" y="-37.499999" height="449.999989" fill-opacity="1"/><rect x="-37.5" width="450" fill="#ffffff" y="-37.499999" height="449.999989" fill-opacity="1"/><g clip-path="url(#c14c178cdd)"><path fill="#d7d98a" d="M 242.351562 94.765625 L 237.859375 94.765625 L 237.859375 89.082031 L 197.269531 89.082031 L 197.269531 94.078125 L 192.113281 94.078125 L 192.113281 127.019531 L 187.117188 127.019531 L 187.117188 132.175781 L 179.644531 132.175781 L 179.644531 136.910156 L 172.015625 136.910156 L 172.015625 142.277344 L 166.753906 142.277344 L 166.753906 147.226562 L 156.703125 147.226562 L 156.703125 142.332031 L 151.652344 142.332031 L 151.652344 137.28125 L 146.601562 137.28125 L 146.601562 127.019531 L 141.605469 127.019531 L 141.605469 157.222656 L 146.445312 157.222656 L 146.445312 162.378906 L 151.707031 162.378906 L 151.707031 167.484375 L 156.707031 167.484375 L 156.707031 172.535156 L 161.753906 172.535156 L 161.753906 177.429688 L 166.753906 177.429688 L 166.753906 197.789062 L 177.015625 197.789062 L 177.015625 192.582031 L 171.910156 192.582031 L 171.910156 187.582031 L 176.960938 187.582031 L 176.960938 182.535156 L 182.011719 182.535156 L 182.011719 177.535156 L 187.117188 177.535156 L 187.117188 182.535156 L 191.976562 182.535156 L 191.976562 197.792969 L 202.113281 197.792969 L 202.113281 192.636719 L 197.21875 192.636719 L 197.21875 172.480469 L 202.113281 172.480469 L 202.113281 167.375 L 207.320312 167.375 L 207.320312 159.796875 L 212.269531 159.796875 L 212.269531 142.125 L 217.425781 142.125 L 217.425781 147.019531 L 222.320312 147.019531 L 222.320312 137.125 L 212.324219 137.125 L 212.324219 126.96875 L 232.421875 126.96875 L 232.421875 121.921875 L 217.425781 121.921875 L 217.375 116.378906 L 242.351562 116.378906 Z M 207.261719 101.769531 L 202.210938 101.769531 L 202.210938 96.71875 L 207.261719 96.71875 Z M 207.261719 101.769531 " fill-opacity="1" fill-rule="nonzero"/></g><g clip-path="url(#d1cc9ed310)"><path fill="#4c5544" d="M 237.867188 94.765625 L 233.378906 94.765625 L 233.378906 89.082031 L 192.789062 89.082031 L 192.789062 94.078125 L 187.632812 94.078125 L 187.632812 127.019531 L 182.632812 127.019531 L 182.632812 132.175781 L 175.160156 132.175781 L 175.160156 136.910156 L 167.53125 136.910156 L 167.53125 142.277344 L 162.269531 142.277344 L 162.269531 147.226562 L 152.21875 147.226562 L 152.21875 142.332031 L 147.167969 142.332031 L 147.167969 137.28125 L 142.121094 137.28125 L 142.121094 127.019531 L 137.121094 127.019531 L 137.121094 157.222656 L 141.964844 157.222656 L 141.964844 162.378906 L 147.226562 162.378906 L 147.226562 167.484375 L 152.222656 167.484375 L 152.222656 172.535156 L 157.273438 172.535156 L 157.273438 177.429688 L 162.269531 177.429688 L 162.269531 197.789062 L 172.535156 197.789062 L 172.535156 192.582031 L 167.429688 192.582031 L 167.429688 187.582031 L 172.476562 187.582031 L 172.476562 182.535156 L 177.527344 182.535156 L 177.527344 177.535156 L 182.632812 177.535156 L 182.632812 182.535156 L 187.492188 182.535156 L 187.492188 197.792969 L 197.628906 197.792969 L 197.628906 192.636719 L 192.738281 192.636719 L 192.738281 172.480469 L 197.628906 172.480469 L 197.628906 167.375 L 202.839844 167.375 L 202.839844 159.796875 L 207.785156 159.796875 L 207.785156 142.125 L 212.941406 142.125 L 212.941406 147.019531 L 217.835938 147.019531 L 217.835938 137.125 L 207.839844 137.125 L 207.839844 126.96875 L 227.941406 126.96875 L 227.941406 121.921875 L 212.941406 121.921875 L 212.890625 116.378906 L 237.867188 116.378906 Z M 202.777344 101.769531 L 197.726562 101.769531 L 197.726562 96.71875 L 202.777344 96.71875 Z M 202.777344 101.769531 " fill-opacity="1" fill-rule="nonzero"/></g><g fill="#4c5544" fill-opacity="1"><g transform="translate(92.029589, 224.53676)"><g><path d="M 2.9375 0 L 2.9375 -28.921875 L 7.1875 -28.921875 L 7.1875 -16.953125 C 7.726562 -17.941406 8.585938 -18.765625 9.765625 -19.421875 C 10.941406 -20.078125 12.265625 -20.40625 13.734375 -20.40625 C 16.203125 -20.40625 18.078125 -19.660156 19.359375 -18.171875 C 20.648438 -16.691406 21.296875 -14.554688 21.296875 -11.765625 L 21.296875 0 L 17.03125 0 L 17.03125 -11.171875 C 17.03125 -12.828125 16.628906 -14.109375 15.828125 -15.015625 C 15.023438 -15.929688 13.914062 -16.390625 12.5 -16.390625 C 11.019531 -16.390625 9.765625 -15.894531 8.734375 -14.90625 C 7.703125 -13.914062 7.1875 -12.484375 7.1875 -10.609375 L 7.1875 0 Z M 2.9375 0 "/></g></g></g><g fill="#4c5544" fill-opacity="1"><g transform="translate(119.833472, 224.53676)"><g><path d="M 11.65625 -22.984375 C 10.71875 -22.984375 9.929688 -23.28125 9.296875 -23.875 C 8.671875 -24.476562 8.359375 -25.222656 8.359375 -26.109375 C 8.359375 -26.992188 8.671875 -27.726562 9.296875 -28.3125 C 9.929688 -28.90625 10.71875 -29.203125 11.65625 -29.203125 C 12.613281 -29.203125 13.40625 -28.90625 14.03125 -28.3125 C 14.664062 -27.726562 14.984375 -26.992188 14.984375 -26.109375 C 14.984375 -25.222656 14.664062 -24.476562 14.03125 -23.875 C 13.40625 -23.28125 12.613281 -22.984375 11.65625 -22.984375 Z M 3.65625 0 L 3.65625 -3.703125 L 9.921875 -3.703125 L 9.921875 -14.90625 C 9.921875 -15.789062 9.492188 -16.234375 8.640625 -16.234375 L 4.21875 -16.234375 L 4.21875 -19.921875 L 9.40625 -19.921875 C 11.0625 -19.921875 12.269531 -19.539062 13.03125 -18.78125 C 13.800781 -18.019531 14.1875 -16.804688 14.1875 -15.140625 L 14.1875 -3.703125 L 20.453125 -3.703125 L 20.453125 0 Z M 3.65625 0 "/></g></g></g><g fill="#4c5544" fill-opacity="1"><g transform="translate(147.637354, 224.53676)"><g><path d="M 3.09375 0 L 3.09375 -3.703125 L 7.953125 -3.703125 L 7.953125 -14.90625 C 7.953125 -15.789062 7.523438 -16.234375 6.671875 -16.234375 L 3.5 -16.234375 L 3.5 -19.921875 L 8.28125 -19.921875 C 9.375 -19.921875 10.269531 -19.601562 10.96875 -18.96875 C 11.664062 -18.34375 12.015625 -17.46875 12.015625 -16.34375 L 12.015625 -15.875 L 12.21875 -15.875 C 12.507812 -17.375 13.144531 -18.503906 14.125 -19.265625 C 15.101562 -20.023438 16.53125 -20.40625 18.40625 -20.40625 L 21.484375 -20.40625 L 21.484375 -15.90625 L 17.15625 -15.90625 C 15.570312 -15.90625 14.351562 -15.351562 13.5 -14.25 C 12.644531 -13.15625 12.21875 -11.847656 12.21875 -10.328125 L 12.21875 -3.703125 L 18.40625 -3.703125 L 18.40625 0 Z M 3.09375 0 "/></g></g></g><g fill="#4c5544" fill-opacity="1"><g transform="translate(175.441234, 224.53676)"><g><path d="M 12.296875 0.484375 C 10.367188 0.484375 8.664062 0.0507812 7.1875 -0.8125 C 5.71875 -1.6875 4.566406 -2.898438 3.734375 -4.453125 C 2.898438 -6.003906 2.484375 -7.8125 2.484375 -9.875 C 2.484375 -11.96875 2.890625 -13.800781 3.703125 -15.375 C 4.523438 -16.957031 5.679688 -18.191406 7.171875 -19.078125 C 8.660156 -19.960938 10.378906 -20.40625 12.328125 -20.40625 C 14.253906 -20.40625 15.914062 -19.96875 17.3125 -19.09375 C 18.707031 -18.226562 19.785156 -17.070312 20.546875 -15.625 C 21.304688 -14.175781 21.6875 -12.582031 21.6875 -10.84375 C 21.6875 -10.570312 21.6875 -10.28125 21.6875 -9.96875 C 21.6875 -9.664062 21.675781 -9.328125 21.65625 -8.953125 L 6.671875 -8.953125 C 6.804688 -7.109375 7.40625 -5.707031 8.46875 -4.75 C 9.539062 -3.800781 10.800781 -3.328125 12.25 -3.328125 C 13.507812 -3.328125 14.503906 -3.585938 15.234375 -4.109375 C 15.972656 -4.640625 16.519531 -5.359375 16.875 -6.265625 L 21.171875 -6.265625 C 20.691406 -4.367188 19.6875 -2.769531 18.15625 -1.46875 C 16.632812 -0.164062 14.679688 0.484375 12.296875 0.484375 Z M 12.296875 -16.71875 C 10.984375 -16.71875 9.816406 -16.320312 8.796875 -15.53125 C 7.773438 -14.738281 7.117188 -13.632812 6.828125 -12.21875 L 17.4375 -12.21875 C 17.332031 -13.550781 16.8125 -14.632812 15.875 -15.46875 C 14.9375 -16.300781 13.742188 -16.71875 12.296875 -16.71875 Z M 12.296875 -16.71875 "/></g></g></g><g fill="#4c5544" fill-opacity="1"><g transform="translate(203.245119, 224.53676)"><g/></g></g><g fill="#4c5544" fill-opacity="1"><g transform="translate(231.049004, 224.53676)"><g><path d="M 1 0 L 1 -19.921875 L 4.546875 -19.921875 L 4.90625 -17.59375 L 5.109375 -17.59375 C 5.453125 -18.425781 5.984375 -19.101562 6.703125 -19.625 C 7.429688 -20.144531 8.289062 -20.40625 9.28125 -20.40625 C 10.238281 -20.40625 11.078125 -20.164062 11.796875 -19.6875 C 12.523438 -19.207031 13.066406 -18.507812 13.421875 -17.59375 L 13.578125 -17.59375 C 13.921875 -18.394531 14.46875 -19.0625 15.21875 -19.59375 C 15.96875 -20.132812 16.894531 -20.40625 18 -20.40625 C 19.46875 -20.40625 20.582031 -19.921875 21.34375 -18.953125 C 22.113281 -17.992188 22.5 -16.644531 22.5 -14.90625 L 22.5 0 L 18.40625 0 L 18.40625 -14.0625 C 18.40625 -14.863281 18.234375 -15.5 17.890625 -15.96875 C 17.554688 -16.4375 17.03125 -16.671875 16.3125 -16.671875 C 15.582031 -16.671875 14.984375 -16.390625 14.515625 -15.828125 C 14.046875 -15.265625 13.8125 -14.472656 13.8125 -13.453125 L 13.8125 0 L 9.6875 0 L 9.6875 -14.0625 C 9.6875 -14.863281 9.523438 -15.5 9.203125 -15.96875 C 8.878906 -16.4375 8.351562 -16.671875 7.625 -16.671875 C 6.90625 -16.671875 6.304688 -16.390625 5.828125 -15.828125 C 5.347656 -15.265625 5.109375 -14.472656 5.109375 -13.453125 L 5.109375 0 Z M 1 0 "/></g></g></g><g fill="#4c5544" fill-opacity="1"><g transform="translate(258.85289, 224.53676)"><g><path d="M 12.296875 0.484375 C 10.367188 0.484375 8.664062 0.0507812 7.1875 -0.8125 C 5.71875 -1.6875 4.566406 -2.898438 3.734375 -4.453125 C 2.898438 -6.003906 2.484375 -7.8125 2.484375 -9.875 C 2.484375 -11.96875 2.890625 -13.800781 3.703125 -15.375 C 4.523438 -16.957031 5.679688 -18.191406 7.171875 -19.078125 C 8.660156 -19.960938 10.378906 -20.40625 12.328125 -20.40625 C 14.253906 -20.40625 15.914062 -19.96875 17.3125 -19.09375 C 18.707031 -18.226562 19.785156 -17.070312 20.546875 -15.625 C 21.304688 -14.175781 21.6875 -12.582031 21.6875 -10.84375 C 21.6875 -10.570312 21.6875 -10.28125 21.6875 -9.96875 C 21.6875 -9.664062 21.675781 -9.328125 21.65625 -8.953125 L 6.671875 -8.953125 C 6.804688 -7.109375 7.40625 -5.707031 8.46875 -4.75 C 9.539062 -3.800781 10.800781 -3.328125 12.25 -3.328125 C 13.507812 -3.328125 14.503906 -3.585938 15.234375 -4.109375 C 15.972656 -4.640625 16.519531 -5.359375 16.875 -6.265625 L 21.171875 -6.265625 C 20.691406 -4.367188 19.6875 -2.769531 18.15625 -1.46875 C 16.632812 -0.164062 14.679688 0.484375 12.296875 0.484375 Z M 12.296875 -16.71875 C 10.984375 -16.71875 9.816406 -16.320312 8.796875 -15.53125 C 7.773438 -14.738281 7.117188 -13.632812 6.828125 -12.21875 L 17.4375 -12.21875 C 17.332031 -13.550781 16.8125 -14.632812 15.875 -15.46875 C 14.9375 -16.300781 13.742188 -16.71875 12.296875 -16.71875 Z M 12.296875 -16.71875 "/></g></g></g></svg>