<?xml version="1.0" encoding="utf-8"?>
<svg viewBox="0 0 500 500" style="shape-rendering: geometricprecision;" xmlns="http://www.w3.org/2000/svg">
  <g transform="matrix(1, 0, 0, 1, -44.29756164550781, 63.12578964233399)">
    <path style="opacity:1" fill="#076068" d="M 121.5,51.5 C 122.045,65.3228 125.878,78.3228 133,90.5C 145.944,109.777 159.278,128.777 173,147.5C 181.851,161.387 186.685,176.554 187.5,193C 187.396,209.505 181.396,223.338 169.5,234.5C 171.237,219.11 168.07,204.777 160,191.5C 155.719,184.885 151.053,178.552 146,172.5C 133.998,160.831 122.331,148.831 111,136.5C 94.0196,114.742 93.0196,92.075 108,68.5C 112.027,62.4387 116.527,56.772 121.5,51.5 Z"/>
  </g>
  <g transform="matrix(1, 0, 0, 1, -32.93312072753906, -12.587696075439453)">
    <path style="opacity:1" fill="#0b6169" d="M 108.136 234.213 C 108.821 243.437 111.654 252.104 116.636 260.213 C 123.915 271.159 131.582 281.825 139.636 292.213 C 148.013 304.383 151.013 317.716 148.636 332.213 C 146.576 338.936 142.909 344.603 137.636 349.213 C 139.448 339.303 137.781 329.97 132.636 321.213 C 124.412 309.984 115.079 299.65 104.636 290.213 C 89.751 270.652 90.917 251.985 108.136 234.213 Z"/>
  </g>
  <path d="M 201.143 234.565 L 188.808 234.565 L 188.808 210.773 Q 188.808 203.223 188.018 201.006 Q 187.228 198.789 185.45 197.56 Q 183.672 196.331 181.17 196.331 Q 177.965 196.331 175.419 198.087 Q 172.873 199.843 171.93 202.74 Q 170.986 205.637 170.986 213.451 L 170.986 234.565 L 158.651 234.565 L 158.651 187.947 L 170.108 187.947 L 170.108 194.795 Q 176.21 186.893 185.472 186.893 Q 189.554 186.893 192.934 188.364 Q 196.314 189.834 198.048 192.117 Q 199.782 194.4 200.462 197.297 Q 201.143 200.194 201.143 205.593 Z M 246.334 234.565 L 246.334 227.585 Q 243.788 231.317 239.64 233.468 Q 235.492 235.619 230.883 235.619 Q 226.186 235.619 222.454 233.555 Q 218.723 231.492 217.055 227.761 Q 215.387 224.03 215.387 217.445 L 215.387 187.947 L 227.722 187.947 L 227.722 209.368 Q 227.722 219.201 228.402 221.418 Q 229.083 223.635 230.883 224.93 Q 232.682 226.225 235.448 226.225 Q 238.608 226.225 241.11 224.491 Q 243.613 222.757 244.534 220.189 Q 245.456 217.621 245.456 207.613 L 245.456 187.947 L 257.791 187.947 L 257.791 234.565 Z M 284.37 234.565 L 272.035 234.565 L 272.035 187.947 L 283.492 187.947 L 283.492 194.575 Q 286.434 189.878 288.782 188.386 Q 291.13 186.893 294.115 186.893 Q 298.329 186.893 302.236 189.22 L 298.417 199.975 Q 295.301 197.955 292.623 197.955 Q 290.033 197.955 288.233 199.382 Q 286.434 200.809 285.402 204.54 Q 284.37 208.271 284.37 220.167 Z M 340.22 234.565 L 340.22 227.585 Q 337.674 231.317 333.526 233.468 Q 329.378 235.619 324.769 235.619 Q 320.072 235.619 316.34 233.555 Q 312.609 231.492 310.941 227.761 Q 309.273 224.03 309.273 217.445 L 309.273 187.947 L 321.608 187.947 L 321.608 209.368 Q 321.608 219.201 322.288 221.418 Q 322.969 223.635 324.769 224.93 Q 326.568 226.225 329.334 226.225 Q 332.494 226.225 334.996 224.491 Q 337.499 222.757 338.42 220.189 Q 339.342 217.621 339.342 207.613 L 339.342 187.947 L 351.677 187.947 L 351.677 234.565 Z" transform="matrix(1.209534, 0, 0, 1, -27.595093, 9.464462)" style="fill: rgb(27, 96, 104);"/>
</svg>