<?xml version="1.0" encoding="utf-8"?>
<svg viewBox="57 94.0144 150 153.8606" xmlns="http://www.w3.org/2000/svg">
  <rect style="stroke: rgb(0, 0, 0); fill: rgb(76, 85, 68);" x="57" y="97.875" width="150" height="150" rx="10" ry="10" transform="matrix(1, 0, 0, 1, 7.105427357601002e-15, 0)"/>
  <path d="M 133.043 168.017 Q 135.511 169.966 141.552 173.343 Q 147.592 176.721 153.113 176.721 Q 158.634 176.721 158.634 172.434 Q 158.634 170.485 157.075 168.992 Q 155.516 167.498 151.359 165.549 Q 147.202 163.601 145.124 162.497 Q 143.046 161.392 139.603 158.859 Q 136.161 156.326 134.342 153.598 Q 129.146 146.194 129.146 134.763 Q 129.146 123.332 137.655 115.473 Q 146.163 107.614 159.933 107.614 Q 169.285 107.614 177.209 109.627 Q 185.133 111.641 185.393 114.888 Q 185.393 115.278 185.393 115.668 Q 185.393 120.214 182.535 127.164 Q 179.677 134.114 178.508 134.893 Q 170.195 130.606 163.635 130.606 Q 157.075 130.606 157.075 135.283 Q 157.075 138.14 161.881 140.349 Q 162.92 140.868 164.869 141.778 Q 166.817 142.687 169.35 143.921 Q 171.883 145.155 174.806 147.039 Q 177.729 148.922 181.106 152.04 Q 187.991 158.535 187.991 169.186 Q 187.991 183.086 180.327 191.919 Q 172.663 200.752 156.685 201.012 Q 148.891 201.012 142.591 199.713 Q 136.291 198.414 131.614 194.647 Q 126.938 190.88 126.938 185.554 Q 126.938 180.228 128.887 174.967 Q 130.835 169.706 133.043 168.017 Z M 219.295 200.103 Q 219.295 201.012 207.02 201.012 Q 194.744 201.012 194.744 200.233 L 194.744 176.851 Q 194.744 175.681 207.02 175.681 Q 219.295 175.681 219.295 176.331 Z" transform="matrix(1.15412, 0, 0, 1.035984, -51.1371, 10.87632)" style="fill: rgb(249, 255, 242);"/>
</svg>